<svg width="18" height="17" viewBox="0 0 18 17" fill="none" xmlns="http://www.w3.org/2000/svg">
<path d="M11.115 0.800049C11.988 0.809039 12.699 1.25854 13.113 2.06764C13.2199 2.28115 13.3689 2.59299 13.525 2.92195L13.7135 3.31973L13.806 3.51503L13.896 3.71281C13.932 3.77574 13.995 3.82069 14.076 3.82069C16.236 3.82069 18 5.58273 18 7.74034V13.0804C18 15.238 16.236 17 14.076 17H3.924C1.755 17 0 15.238 0 13.0804V7.74034C0 5.58273 1.755 3.82069 3.924 3.82069C3.996 3.82069 4.068 3.78473 4.095 3.71281L4.149 3.60493C4.401 3.07452 4.707 2.42724 4.887 2.06764C5.301 1.25854 6.003 0.809039 6.876 0.800049H11.115ZM9 6.56265C8.055 6.56265 7.164 6.93124 6.489 7.60549C5.823 8.27974 5.454 9.16076 5.463 10.0957C5.463 11.0397 5.832 11.9207 6.498 12.5949C7.173 13.2602 8.055 13.6288 9 13.6288C9.972 13.6288 10.854 13.2332 11.493 12.5949C12.132 11.9567 12.528 11.0756 12.537 10.0957C12.537 9.16076 12.168 8.27075 11.502 7.5965C10.836 6.93124 9.945 6.56265 9 6.56265ZM9 7.91115C9.585 7.91115 10.134 8.1359 10.548 8.54944C10.962 8.96298 11.187 9.51137 11.187 10.0957C11.178 11.3004 10.206 12.2803 9 12.2803C8.415 12.2803 7.866 12.0555 7.452 11.642C7.038 11.2285 6.813 10.6801 6.813 10.0957V10.0867C6.804 9.52036 7.029 8.97197 7.443 8.55843C7.866 8.1359 8.415 7.91115 9 7.91115ZM14.049 6.34689C13.599 6.34689 13.239 6.71548 13.239 7.16498C13.239 7.61448 13.599 7.97408 14.049 7.97408C14.499 7.97408 14.868 7.61448 14.868 7.16498C14.868 6.71548 14.499 6.34689 14.049 6.34689Z" fill="white"/>
</svg>
