<svg width="35" height="55" viewBox="0 0 35 55" fill="none" xmlns="http://www.w3.org/2000/svg">
<path d="M16.125 54.4375H19.25V49.4688C28.25 48.9375 34.7188 44.1562 34.7188 36.25C34.7188 29.4062 30.25 25.9688 21.6875 24.0312L19.25 23.5V12.5C22.875 12.9375 25.3438 14.9062 25.7812 18.3438H34.0938C33.8125 10.9062 28.0625 6.03125 19.25 5.4375V0.375H16.125V5.4375C7.40625 5.875 1.15625 10.75 1.15625 18.2812C1.15625 25.0312 5.625 28.6875 13.8125 30.5312L16.125 31.0625V42.4375C11.7188 42.0312 9.40625 39.8125 8.875 36.5625H0.53125C0.75 44.4375 7.21875 49.0625 16.125 49.4688V54.4375ZM9.90625 17.4688C9.90625 14.9375 12.0312 12.8438 16.125 12.4688V22.7812C11.75 21.6562 9.90625 20 9.90625 17.4688ZM26 37.2188C26 40.0938 23.75 42.0938 19.25 42.4375V31.7812C24.25 33.0312 26 34.4375 26 37.2188Z" fill="url(#paint0_linear_4_395)"/>
<defs>
<linearGradient id="paint0_linear_4_395" x1="7.95464" y1="-19.5952" x2="49.5508" y2="3.59206" gradientUnits="userSpaceOnUse">
<stop stop-color="#EE4878"/>
<stop offset="1" stop-color="#7248EE"/>
</linearGradient>
</defs>
</svg>
