<svg width="30" height="30" viewBox="0 0 30 30" fill="none" xmlns="http://www.w3.org/2000/svg">
<path fill-rule="evenodd" clip-rule="evenodd" d="M8.95325 0.421344C10.5173 0.349344 11.0159 0.333344 14.9999 0.333344C18.9839 0.333344 19.4826 0.350677 21.0453 0.421344C22.6079 0.492011 23.6746 0.741344 24.6079 1.10268C25.5852 1.47201 26.4719 2.04934 27.2052 2.79601C27.9519 3.52801 28.5279 4.41334 28.8959 5.39201C29.2586 6.32534 29.5066 7.39201 29.5786 8.95201C29.6506 10.5187 29.6666 11.0173 29.6666 15C29.6666 18.984 29.6492 19.4827 29.5786 21.0467C29.5079 22.6067 29.2586 23.6733 28.8959 24.6067C28.5279 25.5855 27.951 26.4723 27.2052 27.2053C26.4719 27.952 25.5852 28.528 24.6079 28.896C23.6746 29.2587 22.6079 29.5067 21.0479 29.5787C19.4826 29.6507 18.9839 29.6667 14.9999 29.6667C11.0159 29.6667 10.5173 29.6493 8.95325 29.5787C7.39325 29.508 6.32658 29.2587 5.39325 28.896C4.41448 28.528 3.52768 27.951 2.79458 27.2053C2.04842 26.4729 1.471 25.5865 1.10258 24.608C0.741252 23.6747 0.493251 22.608 0.421252 21.048C0.349252 19.4813 0.333252 18.9827 0.333252 15C0.333252 11.016 0.350585 10.5173 0.421252 8.95468C0.491918 7.39201 0.741252 6.32534 1.10259 5.39201C1.47155 4.41345 2.04941 3.52709 2.79592 2.79468C3.52797 2.04868 4.41388 1.47127 5.39192 1.10268C6.32525 0.741344 7.39192 0.493344 8.95192 0.421344L8.95325 0.421344ZM20.9266 3.06134C19.3799 2.99068 18.9159 2.97601 14.9999 2.97601C11.0839 2.97601 10.6199 2.99068 9.07325 3.06134C7.64258 3.12668 6.86659 3.36534 6.34925 3.56668C5.66525 3.83334 5.17592 4.14934 4.66259 4.66268C4.17598 5.13608 3.80149 5.71239 3.56658 6.34934C3.36525 6.86668 3.12658 7.64268 3.06125 9.07334C2.99058 10.62 2.97592 11.084 2.97592 15C2.97592 18.916 2.99058 19.38 3.06125 20.9267C3.12658 22.3573 3.36525 23.1333 3.56658 23.6507C3.80125 24.2867 4.17592 24.864 4.66258 25.3373C5.13592 25.824 5.71325 26.1987 6.34925 26.4333C6.86658 26.6347 7.64258 26.8733 9.07325 26.9387C10.6199 27.0093 11.0826 27.024 14.9999 27.024C18.9173 27.024 19.3799 27.0093 20.9266 26.9387C22.3572 26.8733 23.1333 26.6347 23.6506 26.4333C24.3346 26.1667 24.8239 25.8507 25.3373 25.3373C25.8239 24.864 26.1986 24.2867 26.4333 23.6507C26.6346 23.1333 26.8733 22.3573 26.9386 20.9267C27.0093 19.38 27.0239 18.916 27.0239 15C27.0239 11.084 27.0093 10.62 26.9386 9.07334C26.8733 7.64268 26.6346 6.86668 26.4333 6.34934C26.1666 5.66534 25.8506 5.17601 25.3373 4.66268C24.8638 4.17611 24.2875 3.80162 23.6506 3.56668C23.1333 3.36534 22.3573 3.12668 20.9266 3.06134ZM13.1266 19.5213C14.1728 19.9569 15.3378 20.0156 16.4225 19.6876C17.5072 19.3596 18.4444 18.6652 19.0741 17.723C19.7037 16.7808 19.9867 15.6492 19.8746 14.5215C19.7626 13.3938 19.2626 12.34 18.4599 11.54C17.9482 11.0286 17.3295 10.6371 16.6484 10.3935C15.9672 10.15 15.2405 10.0605 14.5206 10.1315C13.8007 10.2025 13.1055 10.4322 12.485 10.8042C11.8645 11.1761 11.3342 11.681 10.9323 12.2825C10.5304 12.884 10.2668 13.5671 10.1606 14.2826C10.0544 14.9982 10.1081 15.7284 10.318 16.4207C10.5278 17.113 10.8886 17.7502 11.3742 18.2863C11.8599 18.8225 12.4584 19.2443 13.1266 19.5213ZM9.66925 9.66934C10.3693 8.96931 11.2003 8.41401 12.115 8.03516C13.0296 7.6563 14.0099 7.46131 14.9999 7.46131C15.9899 7.46131 16.9702 7.6563 17.8849 8.03516C18.7995 8.41401 19.6306 8.96931 20.3306 9.66934C21.0306 10.3694 21.5859 11.2004 21.9648 12.1151C22.3436 13.0297 22.5386 14.01 22.5386 15C22.5386 15.99 22.3436 16.9703 21.9648 17.8849C21.5859 18.7996 21.0306 19.6306 20.3306 20.3307C18.9168 21.7445 16.9993 22.5387 14.9999 22.5387C13.0005 22.5387 11.083 21.7445 9.66925 20.3307C8.25547 18.9169 7.46122 16.9994 7.46122 15C7.46122 13.0006 8.25547 11.0831 9.66925 9.66934ZM24.2106 8.58401C24.3841 8.42037 24.5229 8.22358 24.619 8.00531C24.715 7.78703 24.7663 7.5517 24.7698 7.31325C24.7733 7.0748 24.7289 6.83807 24.6392 6.61709C24.5496 6.39611 24.4165 6.19536 24.2479 6.02673C24.0792 5.8581 23.8785 5.72502 23.6575 5.63537C23.4365 5.54571 23.1998 5.50131 22.9613 5.50479C22.7229 5.50826 22.4876 5.55955 22.2693 5.65561C22.051 5.75166 21.8542 5.89054 21.6906 6.06401C21.3723 6.40138 21.1981 6.84951 21.2049 7.31325C21.2116 7.777 21.3988 8.21985 21.7268 8.5478C22.0547 8.87575 22.4976 9.06298 22.9613 9.06974C23.4251 9.0765 23.8732 8.90226 24.2106 8.58401Z" fill="white"/>
</svg>
