<svg width="40" height="40" viewBox="0 0 40 40" fill="none" xmlns="http://www.w3.org/2000/svg">
<path d="M25.9834 2.91675C21.0334 2.91675 17.0167 6.93341 17.0167 11.8834C17.0167 16.8334 21.0334 20.8501 25.9834 20.8501C30.9334 20.8501 34.9501 16.8334 34.9501 11.8834C34.9501 6.93341 30.9334 2.91675 25.9834 2.91675Z" fill="white"/>
<path d="M10.6 21.7166C7.55005 21.7166 5.05005 24.1999 5.05005 27.2666C5.05005 30.3332 7.53338 32.8166 10.6 32.8166C13.65 32.8166 16.15 30.3332 16.15 27.2666C16.15 24.1999 13.65 21.7166 10.6 21.7166Z" fill="white"/>
<path d="M27.7001 27.7C25.1167 27.7 23.0167 29.7999 23.0167 32.3833C23.0167 34.9666 25.1167 37.0666 27.7001 37.0666C30.2834 37.0666 32.3834 34.9666 32.3834 32.3833C32.3834 29.7999 30.2834 27.7 27.7001 27.7Z" fill="white"/>
</svg>
