<svg width="24" height="24" viewBox="0 0 24 24" fill="none" xmlns="http://www.w3.org/2000/svg">
<path d="M7.10411 13.7638C8.79613 13.7638 10.1522 15.1331 10.1522 16.8371V20.928C10.1522 22.62 8.79613 24 7.10411 24H3.04805C1.36802 24 0 22.62 0 20.928V16.8371C0 15.1331 1.36802 13.7638 3.04805 13.7638H7.10411ZM20.9524 13.7638C22.6325 13.7638 24.0005 15.1331 24.0005 16.8371V20.928C24.0005 22.62 22.6325 24 20.9524 24H16.8964C15.2043 24 13.8483 22.62 13.8483 20.928V16.8371C13.8483 15.1331 15.2043 13.7638 16.8964 13.7638H20.9524ZM7.10411 0C8.79613 0 10.1522 1.38002 10.1522 3.07325V7.16411C10.1522 8.86813 8.79613 10.2362 7.10411 10.2362H3.04805C1.36802 10.2362 0 8.86813 0 7.16411V3.07325C0 1.38002 1.36802 0 3.04805 0H7.10411ZM20.9524 0C22.6325 0 24.0005 1.38002 24.0005 3.07325V7.16411C24.0005 8.86813 22.6325 10.2362 20.9524 10.2362H16.8964C15.2043 10.2362 13.8483 8.86813 13.8483 7.16411V3.07325C13.8483 1.38002 15.2043 0 16.8964 0H20.9524Z" fill="white"/>
</svg>
