<svg width="16" height="16" viewBox="0 0 16 16" fill="none" xmlns="http://www.w3.org/2000/svg">
<path d="M7.99 0C3.58 0 0 3.58 0 7.99C0 12.4 3.58 15.98 7.99 15.98C12.4 15.98 15.98 12.4 15.98 7.99C15.97 3.58 12.4 0 7.99 0ZM7.05 6.87L9.46 7.71C10.33 8.02 10.75 8.63 10.75 9.57C10.75 10.65 9.89 11.54 8.84 11.54H8.75V11.59C8.75 12 8.41 12.34 8 12.34C7.59 12.34 7.25 12 7.25 11.59V11.53C6.14 11.48 5.25 10.55 5.25 9.39C5.25 8.98 5.59 8.64 6 8.64C6.41 8.64 6.75 8.98 6.75 9.39C6.75 9.75 7.01 10.04 7.33 10.04H8.83C9.06 10.04 9.24 9.83 9.24 9.57C9.24 9.22 9.18 9.2 8.95 9.12L6.54 8.28C5.68 7.98 5.25 7.37 5.25 6.42C5.25 5.34 6.11 4.45 7.16 4.45H7.25V4.41C7.25 4 7.59 3.66 8 3.66C8.41 3.66 8.75 4 8.75 4.41V4.47C9.86 4.52 10.75 5.45 10.75 6.61C10.75 7.02 10.41 7.36 10 7.36C9.59 7.36 9.25 7.02 9.25 6.61C9.25 6.25 8.99 5.96 8.67 5.96H7.17C6.94 5.96 6.76 6.17 6.76 6.43C6.75 6.77 6.81 6.79 7.05 6.87Z" fill="white"/>
</svg>
