<svg width="31" height="26" viewBox="0 0 31 26" fill="none" xmlns="http://www.w3.org/2000/svg">
<path d="M30.5239 3.58266C29.4106 4.07599 28.2146 4.40932 26.9573 4.55999C28.2546 3.78371 29.2252 2.56195 29.6879 1.12266C28.4691 1.84664 27.1351 2.35625 25.7439 2.62932C24.8084 1.63048 23.5693 0.968426 22.219 0.745957C20.8687 0.523487 19.4827 0.753046 18.2763 1.39899C17.0698 2.04494 16.1103 3.07114 15.5468 4.31826C14.9833 5.56539 14.8473 6.96366 15.1599 8.29599C12.6902 8.17199 10.2741 7.53006 8.0685 6.41186C5.8629 5.29367 3.91706 3.72421 2.35727 1.80532C1.82393 2.72532 1.51727 3.79199 1.51727 4.92799C1.51667 5.95065 1.76851 6.95765 2.25044 7.85963C2.73237 8.76162 3.42948 9.53071 4.27993 10.0987C3.29364 10.0673 2.3291 9.80077 1.4666 9.32132L1.4666 9.40132C1.4665 10.8356 1.96264 12.2258 2.87084 13.336C3.77905 14.4461 5.04336 15.2079 6.44927 15.492C5.53431 15.7396 4.57505 15.7761 3.64393 15.5987C4.0406 16.8328 4.81326 17.912 5.85376 18.6852C6.89425 19.4584 8.15049 19.8869 9.4466 19.9107C7.24638 21.6379 4.52912 22.5748 1.73193 22.5707C1.23644 22.5708 0.741369 22.5419 0.249267 22.484C3.08857 24.3096 6.39372 25.2784 9.76927 25.2747C21.1959 25.2747 27.4426 15.8107 27.4426 7.60266C27.4426 7.33599 27.4359 7.06666 27.4239 6.79999C28.639 5.92129 29.6878 4.83319 30.5213 3.58666L30.5239 3.58266Z" fill="white"/>
</svg>
